<svg viewBox="0 0 256 256" xmlns="http://www.w3.org/2000/svg" role="img" aria-label="Usta">
  <title>Usta</title>
  <desc>Three vertical agent panes joined by a U base — multi-agent IDE</desc>
  <defs>
    <linearGradient id="paneCyan" x1="0" y1="0" x2="0" y2="1">
      <stop offset="0%" stop-color="#3DECFF"/><stop offset="55%" stop-color="#15D5F0"/><stop offset="100%" stop-color="#0BB1CC"/>
    </linearGradient>
    <linearGradient id="paneBlue" x1="0" y1="0" x2="0" y2="1">
      <stop offset="0%" stop-color="#5A9DFF"/><stop offset="55%" stop-color="#5A7BF0"/><stop offset="100%" stop-color="#4B5FD8"/>
    </linearGradient>
    <linearGradient id="panePink" x1="0" y1="0" x2="0" y2="1">
      <stop offset="0%" stop-color="#FF6BC4"/><stop offset="55%" stop-color="#F45BA5"/><stop offset="100%" stop-color="#E14C8E"/>
    </linearGradient>
    <linearGradient id="baseLeft" x1="0" y1="0" x2="1" y2="0.5">
      <stop offset="0%" stop-color="#4B5FD8"/><stop offset="100%" stop-color="#7C5FF0"/>
    </linearGradient>
    <linearGradient id="baseRight" x1="0" y1="0" x2="1" y2="0.5">
      <stop offset="0%" stop-color="#9760EE"/><stop offset="100%" stop-color="#6A4DD8"/>
    </linearGradient>
  </defs>
  <path d="M 38 30 L 70 30 L 70 160 L 38 168 Z" fill="url(#paneCyan)"/>
  <path d="M 78 32 L 102 32 L 102 158 L 78 168 Z" fill="url(#paneCyan)" opacity="0.92"/>
  <path d="M 110 30 L 134 30 L 134 160 L 110 160 Z" fill="url(#paneBlue)"/>
  <path d="M 142 30 L 166 30 L 166 160 L 142 160 Z" fill="url(#paneBlue)"/>
  <path d="M 174 32 L 198 32 L 198 158 L 174 168 Z" fill="url(#panePink)" opacity="0.92"/>
  <path d="M 206 30 L 238 30 L 238 168 L 206 160 Z" fill="url(#panePink)"/>
  <path d="M 38 168 L 128 215 L 128 235 L 38 195 Z" fill="url(#baseLeft)"/>
  <path d="M 128 215 L 238 168 L 238 195 L 128 235 Z" fill="url(#baseRight)"/>
  <path d="M 122 215 L 134 215 L 128 240 Z" fill="#1A0F40" opacity="0.5"/>
</svg>
